<svg width="190" height="220" viewBox="0 0 190 220" fill="none" xmlns="http://www.w3.org/2000/svg">
<g clip-path="url(#clip0_2_49)">
<rect x="48.6582" y="-0.000244141" width="146" height="188" rx="10" transform="rotate(15 48.6582 -0.000244141)" fill="#161C28"/>
<circle cx="8.75499" cy="163.755" r="79" transform="rotate(15 8.75499 163.755)" fill="#232937"/>
<circle cx="202.922" cy="46.9467" r="79" transform="rotate(15 202.922 46.9467)" fill="#232937"/>
<circle opacity="0.5" cx="84.0976" cy="34.1523" r="14" transform="rotate(15 84.0976 34.1523)" fill="white"/>
<circle opacity="0.5" cx="68.0312" cy="29.8474" r="14" transform="rotate(15 68.0312 29.8474)" fill="white"/>
<path d="M46.4515 78.0893L45.4307 77.8158C45.449 77.506 45.4125 77.2198 45.3211 76.957C45.2325 76.6951 45.1014 76.4599 44.9278 76.2517C44.7577 76.0414 44.5539 75.8633 44.3166 75.7173C44.0792 75.5714 43.8206 75.4609 43.5407 75.3859C43.0303 75.2491 42.5333 75.2542 42.0499 75.4011C41.5691 75.5488 41.1394 75.841 40.7606 76.2777C40.3845 76.7152 40.0987 77.2989 39.9032 78.0288C39.7076 78.7587 39.6632 79.4071 39.7702 79.974C39.8798 80.5416 40.1059 81.0095 40.4484 81.3778C40.7937 81.7468 41.2215 81.9996 41.7319 82.1364C42.0118 82.2114 42.291 82.245 42.5695 82.2373C42.8481 82.2296 43.1132 82.1786 43.3649 82.0843C43.6202 81.9879 43.8516 81.8485 44.0594 81.6659C44.2706 81.4814 44.4454 81.2517 44.5837 80.977L45.6045 81.2505C45.4122 81.6608 45.1689 82.0088 44.8747 82.2947C44.5805 82.5805 44.2504 82.8024 43.8846 82.9603C43.5195 83.1154 43.1325 83.2043 42.7234 83.2271C42.3172 83.2505 41.9013 83.2053 41.476 83.0913C40.7571 82.8987 40.1647 82.5517 39.6991 82.0505C39.2334 81.5493 38.9268 80.9318 38.7792 80.1982C38.6317 79.4645 38.677 78.6532 38.9153 77.7641C39.1535 76.875 39.5199 76.1497 40.0145 75.5881C40.5091 75.0265 41.0833 74.6451 41.7373 74.4438C42.3912 74.2426 43.0776 74.2383 43.7966 74.4309C44.2219 74.5449 44.6046 74.7136 44.9447 74.9371C45.2876 75.1613 45.578 75.4332 45.8158 75.7529C46.0545 76.0697 46.2297 76.4255 46.3416 76.8202C46.4542 77.2121 46.4909 77.6352 46.4515 78.0893ZM46.4164 84.2916L48.1105 77.9692L49.049 78.2206L48.7931 79.1756L48.859 79.1932C49.0581 78.9113 49.3346 78.7133 49.6887 78.5994C50.0428 78.4854 50.4091 78.4792 50.7878 78.5807C50.8592 78.5998 50.948 78.625 51.0543 78.6565C51.1605 78.6879 51.2404 78.7137 51.2938 78.7339L51.0291 79.7218C50.9984 79.7047 50.9262 79.6721 50.8126 79.6241C50.7025 79.574 50.583 79.5316 50.454 79.4971C50.1467 79.4147 49.855 79.4057 49.5789 79.47C49.3064 79.5322 49.07 79.6571 48.8697 79.8446C48.673 80.0301 48.5364 80.2656 48.4599 80.551L47.3879 84.5519L46.4164 84.2916ZM53.1522 86.2376C52.543 86.0744 52.0536 85.7991 51.6838 85.4118C51.3176 85.0225 51.0801 84.553 50.9715 84.0033C50.8664 83.4516 50.9006 82.852 51.0742 82.2044C51.2477 81.5568 51.5186 81.0176 51.887 80.5869C52.2588 80.1542 52.6945 79.8563 53.1941 79.6931C53.6972 79.5279 54.2341 79.5217 54.8049 79.6747C55.1342 79.7629 55.4447 79.9049 55.7363 80.1007C56.0279 80.2965 56.2724 80.5532 56.4697 80.8707C56.6677 81.1856 56.7908 81.5656 56.8391 82.0109C56.8875 82.4562 56.8326 82.9738 56.6745 83.5638L56.5642 83.9754L51.6907 82.6696L51.9157 81.8299L55.8013 82.871C55.8969 82.5143 55.9109 82.1769 55.8432 81.8587C55.7782 81.5413 55.6371 81.2668 55.4198 81.035C55.2052 80.804 54.9223 80.6414 54.5711 80.5473C54.1841 80.4436 53.8236 80.45 53.4895 80.5663C53.1589 80.6807 52.8773 80.8699 52.6448 81.1341C52.4122 81.3982 52.2493 81.7046 52.1559 82.0531L52.0059 82.6129C51.8779 83.0903 51.8518 83.5171 51.9275 83.8933C52.0066 84.2674 52.1712 84.5807 52.4213 84.833C52.6721 85.0825 52.9936 85.2598 53.3861 85.365C53.6413 85.4334 53.8813 85.4595 54.1062 85.4433C54.3346 85.425 54.5438 85.3634 54.7337 85.2584C54.9243 85.1507 55.0902 84.9981 55.2314 84.8006L56.0993 85.3155C55.9152 85.6074 55.6742 85.8428 55.3762 86.0218C55.079 86.198 54.7409 86.3074 54.3618 86.35C53.9835 86.3898 53.5803 86.3523 53.1522 86.2376ZM59.1039 87.85C58.7033 87.7427 58.3599 87.5698 58.0738 87.3313C57.7884 87.0902 57.5883 86.7998 57.4734 86.4602C57.3593 86.1178 57.3573 85.7409 57.4676 85.3292C57.5647 84.967 57.7147 84.6925 57.9177 84.5057C58.1214 84.3162 58.3599 84.1889 58.6332 84.1239C58.9065 84.0589 59.1957 84.0335 59.5007 84.0476C59.8092 84.0597 60.1155 84.0858 60.4194 84.1261C60.8168 84.1796 61.1382 84.226 61.3835 84.2653C61.6324 84.3026 61.8201 84.3044 61.9468 84.2707C62.0762 84.2377 62.1619 84.143 62.2038 83.9866L62.2126 83.9536C62.3214 83.5475 62.2948 83.2022 62.1329 82.9176C61.9736 82.6338 61.6704 82.4319 61.2231 82.3121C60.7593 82.1878 60.3685 82.1919 60.0507 82.3244C59.7328 82.4569 59.4895 82.624 59.3207 82.8258L58.487 82.2495C58.7545 81.9094 59.0542 81.6691 59.386 81.5286C59.7212 81.3861 60.0635 81.3161 60.4129 81.3185C60.7657 81.3189 61.1012 81.3618 61.4196 81.4471C61.6226 81.5015 61.8493 81.5887 62.0995 81.7087C62.3531 81.8266 62.5836 81.9928 62.7909 82.2072C63.0009 82.4222 63.1481 82.7014 63.2326 83.0446C63.3171 83.3879 63.2921 83.8106 63.1575 84.3127L62.0414 88.4783L61.07 88.218L61.2994 87.3618L61.25 87.3486C61.1474 87.4682 60.9983 87.5856 60.8027 87.7008C60.6071 87.816 60.367 87.8943 60.0824 87.9357C59.7978 87.9771 59.4716 87.9485 59.1039 87.85ZM59.4859 87.0171C59.8701 87.12 60.2141 87.1313 60.518 87.051C60.8246 86.9714 61.0771 86.8302 61.2756 86.6275C61.4767 86.4255 61.6126 86.1928 61.6832 85.9294L61.9214 85.0403C61.867 85.0787 61.7643 85.0997 61.6134 85.1034C61.4659 85.105 61.2975 85.0967 61.1083 85.0783C60.9226 85.058 60.7417 85.036 60.5657 85.0123C60.3932 84.9867 60.2529 84.9668 60.145 84.9525C59.8837 84.9178 59.6334 84.9081 59.394 84.9234C59.1581 84.9366 58.9534 84.998 58.78 85.1074C58.61 85.2148 58.492 85.392 58.4258 85.6389C58.3354 85.9765 58.3918 86.2651 58.5952 86.5049C58.8021 86.7427 59.099 86.9134 59.4859 87.0171ZM66.1665 89.7248C65.6396 89.5836 65.2102 89.3259 64.8781 88.9516C64.5468 88.5746 64.3327 88.1114 64.2358 87.5619C64.1397 87.0097 64.1813 86.3988 64.3607 85.7292C64.5386 85.0651 64.8069 84.5194 65.1656 84.092C65.5242 83.6645 65.9423 83.3721 66.4197 83.2148C66.8972 83.0574 67.4021 83.0501 67.9344 83.1927C68.346 83.303 68.6528 83.4588 68.8548 83.6599C69.0602 83.8591 69.2029 84.062 69.2828 84.2687C69.3662 84.4734 69.4289 84.6402 69.4708 84.7691L69.5531 84.7911L70.3869 81.6793L71.3584 81.9396L69.0996 90.3695L68.1611 90.1181L68.4214 89.1466L68.3061 89.1158C68.2039 89.2119 68.0634 89.3301 67.8846 89.4705C67.7066 89.608 67.4771 89.7127 67.1961 89.7845C66.9158 89.8535 66.5726 89.8336 66.1665 89.7248ZM66.532 88.8874C66.9217 88.9919 67.2782 88.9786 67.6015 88.8475C67.9256 88.7138 68.2061 88.4846 68.4432 88.1598C68.6809 87.8324 68.8637 87.4299 68.9917 86.9524C69.1181 86.4804 69.1602 86.0491 69.1178 85.6583C69.0762 85.2648 68.9474 84.9333 68.7314 84.6636C68.5162 84.3912 68.211 84.2021 67.8158 84.0962C67.4042 83.9859 67.0329 83.9997 66.7019 84.1374C66.3743 84.2732 66.0938 84.5024 65.8603 84.8252C65.6302 85.1459 65.4556 85.5285 65.3365 85.973C65.2159 86.4231 65.175 86.8503 65.2137 87.2548C65.2558 87.6573 65.3837 88.0033 65.5973 88.2929C65.8143 88.5804 66.1259 88.7786 66.532 88.8874ZM71.0136 90.8824L72.7077 84.56L73.6791 84.8202L71.985 91.1427L71.0136 90.8824ZM73.484 83.6386C73.2946 83.5878 73.1486 83.4796 73.046 83.3139C72.9461 83.1489 72.9204 82.9758 72.9689 82.7947C73.0174 82.6136 73.1262 82.4766 73.2952 82.3836C73.467 82.2914 73.6476 82.2707 73.8369 82.3214C74.0262 82.3721 74.1709 82.48 74.2708 82.645C74.3734 82.8107 74.4005 82.9842 74.352 83.1653C74.3034 83.3464 74.1933 83.483 74.0215 83.5753C73.8525 83.6682 73.6733 83.6893 73.484 83.6386ZM78.2079 86.0337L77.9873 86.857L74.7109 85.979L74.9314 85.1558L78.2079 86.0337ZM76.2923 83.8969L77.2637 84.1572L75.649 90.1833C75.5755 90.4577 75.5601 90.6742 75.6029 90.8327C75.6492 90.9892 75.7292 91.1077 75.843 91.1882C75.9602 91.2666 76.0901 91.325 76.2328 91.3632C76.3398 91.3919 76.4291 91.4099 76.5007 91.4174C76.5729 91.422 76.6308 91.4257 76.6741 91.4285L76.6379 92.3541C76.5654 92.3612 76.4669 92.3612 76.3423 92.3543C76.2169 92.3501 76.0637 92.3238 75.8826 92.2752C75.6082 92.2017 75.355 92.0707 75.1232 91.8821C74.8941 91.6942 74.7255 91.4564 74.6174 91.1686C74.5119 90.8815 74.5085 90.5541 74.607 90.1864L76.2923 83.8969ZM89.7031 89.6786L88.6823 89.405C88.7006 89.0952 88.6641 88.809 88.5727 88.5463C88.4841 88.2843 88.353 88.0492 88.1794 87.8409C88.0093 87.6306 87.8055 87.4525 87.5682 87.3065C87.3308 87.1606 87.0722 87.0501 86.7923 86.9751C86.2819 86.8383 85.7849 86.8434 85.3015 86.9903C84.8207 87.138 84.391 87.4302 84.0122 87.8669C83.6361 88.3044 83.3503 88.8881 83.1547 89.618C82.9592 90.348 82.9148 90.9964 83.0218 91.5632C83.1314 92.1308 83.3575 92.5988 83.7 92.967C84.0453 93.336 84.4731 93.5888 84.9835 93.7256C85.2634 93.8006 85.5426 93.8343 85.8211 93.8265C86.0997 93.8188 86.3648 93.7678 86.6165 93.6735C86.8718 93.5772 87.1032 93.4377 87.311 93.2552C87.5222 93.0706 87.697 92.8409 87.8353 92.5662L88.8561 92.8398C88.6638 93.25 88.4205 93.5981 88.1263 93.8839C87.8321 94.1698 87.502 94.3916 87.1362 94.5495C86.7711 94.7046 86.3841 94.7935 85.975 94.8163C85.5688 94.8398 85.1529 94.7945 84.7276 94.6806C84.0086 94.4879 83.4163 94.141 82.9506 93.6397C82.485 93.1385 82.1784 92.521 82.0308 91.7874C81.8833 91.0538 81.9286 90.2424 82.1669 89.3533C82.4051 88.4642 82.7715 87.7389 83.2661 87.1773C83.7607 86.6157 84.3349 86.2343 84.9888 86.0331C85.6428 85.8318 86.3292 85.8275 87.0482 86.0202C87.4735 86.1341 87.8562 86.3029 88.1963 86.5263C88.5392 86.7506 88.8295 87.0225 89.0674 87.3421C89.306 87.659 89.4813 88.0147 89.5932 88.4094C89.7058 88.8014 89.7425 89.2244 89.7031 89.6786ZM89.668 95.8808L91.3621 89.5584L92.3006 89.8099L92.0447 90.7648L92.1106 90.7825C92.3097 90.5005 92.5862 90.3026 92.9403 90.1886C93.2943 90.0747 93.6607 90.0684 94.0394 90.1699C94.1107 90.189 94.1996 90.2143 94.3058 90.2457C94.4121 90.2771 94.492 90.3029 94.5454 90.3231L94.2807 91.311C94.25 91.2939 94.1778 91.2614 94.0642 91.2133C93.9541 91.1632 93.8346 91.1209 93.7056 91.0863C93.3983 91.004 93.1066 90.9949 92.8305 91.0592C92.558 91.1214 92.3216 91.2463 92.1213 91.4339C91.9246 91.6194 91.788 91.8548 91.7115 92.1402L90.6394 96.1411L89.668 95.8808ZM95.8015 97.6831C95.4009 97.5758 95.0575 97.4029 94.7714 97.1644C94.486 96.9233 94.2859 96.6329 94.171 96.2933C94.0569 95.9509 94.055 95.574 94.1653 95.1623C94.2623 94.8001 94.4123 94.5256 94.6153 94.3388C94.819 94.1493 95.0575 94.0221 95.3308 93.957C95.6041 93.892 95.8933 93.8666 96.1984 93.8807C96.5069 93.8928 96.8131 93.9189 97.117 93.9592C97.5144 94.0127 97.8358 94.0591 98.0812 94.0984C98.33 94.1357 98.5177 94.1375 98.6444 94.1038C98.7738 94.0708 98.8595 93.9761 98.9014 93.8197L98.9102 93.7868C99.0191 93.3806 98.9925 93.0353 98.8305 92.7507C98.6713 92.4669 98.368 92.265 97.9207 92.1452C97.457 92.0209 97.0662 92.025 96.7483 92.1575C96.4305 92.29 96.1872 92.4571 96.0184 92.6589L95.1846 92.0826C95.4522 91.7425 95.7518 91.5023 96.0836 91.3617C96.4188 91.2192 96.7611 91.1492 97.1105 91.1516C97.4633 91.152 97.7989 91.1949 98.1172 91.2802C98.3203 91.3346 98.5469 91.4218 98.7971 91.5418C99.0508 91.6597 99.2812 91.8259 99.4885 92.0403C99.6985 92.2554 99.8458 92.5345 99.9303 92.8777C100.015 93.221 99.9897 93.6437 99.8552 94.1458L98.739 98.3114L97.7676 98.0511L97.997 97.1949L97.9476 97.1817C97.845 97.3013 97.6959 97.4187 97.5003 97.5339C97.3047 97.6491 97.0646 97.7274 96.78 97.7688C96.4954 97.8102 96.1693 97.7816 95.8015 97.6831ZM96.1835 96.8502C96.5677 96.9531 96.9117 96.9644 97.2156 96.8841C97.5222 96.8045 97.7748 96.6633 97.9732 96.4606C98.1744 96.2586 98.3102 96.0259 98.3808 95.7625L98.6191 94.8734C98.5647 94.9118 98.462 94.9328 98.311 94.9365C98.1635 94.9381 97.9952 94.9298 97.806 94.9114C97.6202 94.8911 97.4394 94.8691 97.2634 94.8454C97.0908 94.8198 96.9506 94.7999 96.8426 94.7856C96.5813 94.7509 96.331 94.7412 96.0916 94.7565C95.8557 94.7697 95.6511 94.8311 95.4776 94.9405C95.3077 95.0479 95.1896 95.2251 95.1234 95.472C95.033 95.8096 95.0895 96.0982 95.2929 96.338C95.4997 96.5758 95.7966 96.7465 96.1835 96.8502ZM102.864 99.5579C102.337 99.4167 101.908 99.159 101.576 98.7847C101.244 98.4077 101.03 97.9445 100.933 97.395C100.837 96.8428 100.879 96.2319 101.058 95.5623C101.236 94.8982 101.505 94.3525 101.863 93.9251C102.222 93.4976 102.64 93.2053 103.117 93.0479C103.595 92.8905 104.1 92.8832 104.632 93.0258C105.044 93.1361 105.35 93.2919 105.552 93.493C105.758 93.6922 105.901 93.8951 105.98 94.1018C106.064 94.3065 106.127 94.4733 106.168 94.6022L106.251 94.6242L107.085 91.5124L108.056 91.7727L105.797 100.203L104.859 99.9512L105.119 98.9797L105.004 98.9489C104.902 99.045 104.761 99.1632 104.582 99.3036C104.404 99.4411 104.175 99.5458 103.894 99.6176C103.613 99.6866 103.27 99.6667 102.864 99.5579ZM103.23 98.7205C103.619 98.825 103.976 98.8117 104.299 98.6807C104.623 98.5469 104.904 98.3177 105.141 97.9929C105.379 97.6655 105.561 97.263 105.689 96.7855C105.816 96.3135 105.858 95.8822 105.815 95.4914C105.774 95.0979 105.645 94.7664 105.429 94.4967C105.214 94.2243 104.909 94.0352 104.513 93.9293C104.102 93.819 103.731 93.8328 103.4 93.9705C103.072 94.1063 102.791 94.3355 102.558 94.6583C102.328 94.979 102.153 95.3616 102.034 95.8061C101.914 96.2562 101.873 96.6834 101.911 97.0879C101.953 97.4904 102.081 97.8364 102.295 98.126C102.512 98.4135 102.824 98.6117 103.23 98.7205Z" fill="#E6E6E6"/>
<circle cx="35.1435" cy="96.8003" r="2" transform="rotate(15 35.1435 96.8003)" fill="#D9D9D9"/>
<circle cx="45.7687" cy="99.6472" r="2" transform="rotate(15 45.7687 99.6472)" fill="#D9D9D9"/>
<circle cx="56.3939" cy="102.494" r="2" transform="rotate(15 56.3939 102.494)" fill="#D9D9D9"/>
<circle cx="67.0187" cy="105.341" r="2" transform="rotate(15 67.0187 105.341)" fill="#D9D9D9"/>
<path d="M84.6359 105.168L82.3771 113.598L81.3563 113.324L83.3283 105.964L83.2789 105.951L80.8547 106.766L81.1326 105.729L83.6151 104.894L84.6359 105.168ZM84.8015 114.247L85 113.506L88.5987 111.206C89.0209 110.937 89.3729 110.699 89.6548 110.492C89.9374 110.282 90.1607 110.074 90.3247 109.868C90.4922 109.66 90.6106 109.427 90.6797 109.169C90.7591 108.873 90.7565 108.597 90.6719 108.342C90.59 108.088 90.4428 107.869 90.2302 107.686C90.0176 107.502 89.759 107.37 89.4544 107.288C89.1306 107.201 88.8299 107.193 88.5524 107.263C88.2784 107.33 88.0435 107.466 87.8478 107.669C87.6549 107.874 87.5154 108.136 87.4294 108.457L86.458 108.197C86.5903 107.703 86.8204 107.3 87.1481 106.988C87.4759 106.676 87.8639 106.468 88.3122 106.364C88.7632 106.262 89.2343 106.276 89.7255 106.408C90.2195 106.54 90.6292 106.762 90.9548 107.073C91.2803 107.383 91.5041 107.745 91.626 108.157C91.7479 108.569 91.7508 108.992 91.6346 109.425C91.5515 109.735 91.414 110.024 91.2221 110.29C91.0337 110.554 90.7537 110.83 90.3823 111.119C90.0143 111.406 89.5193 111.744 88.8974 112.133L86.4613 113.651L86.4437 113.717L90.3622 114.767L90.1196 115.672L84.8015 114.247ZM94.6371 117.006C94.0937 116.861 93.6344 116.637 93.2591 116.337C92.8865 116.037 92.6198 115.688 92.4591 115.289C92.3018 114.888 92.2714 114.463 92.3678 114.016L93.4051 114.294C93.3542 114.571 93.3847 114.831 93.4964 115.073C93.6088 115.312 93.7838 115.52 94.0213 115.699C94.2588 115.877 94.5395 116.009 94.8633 116.096C95.2255 116.193 95.5634 116.216 95.8772 116.165C96.1909 116.114 96.4575 115.997 96.6769 115.814C96.8964 115.632 97.0458 115.393 97.1252 115.096C97.2083 114.786 97.2046 114.493 97.1142 114.216C97.0245 113.936 96.8495 113.689 96.5891 113.475C96.3288 113.261 95.9846 113.097 95.5565 112.982L94.8815 112.801L95.1241 111.896L95.7992 112.076C96.1339 112.166 96.4437 112.184 96.7286 112.131C97.0161 112.079 97.2606 111.962 97.4622 111.781C97.6664 111.6 97.8083 111.362 97.8877 111.065C97.9641 110.78 97.9676 110.515 97.898 110.27C97.8283 110.025 97.6941 109.812 97.4952 109.632C97.2991 109.453 97.0459 109.322 96.7359 109.239C96.445 109.161 96.1562 109.141 95.8696 109.179C95.5865 109.215 95.3371 109.311 95.1215 109.468C94.9067 109.623 94.7549 109.838 94.6662 110.114L93.6783 109.849C93.8132 109.412 94.0499 109.061 94.3886 108.796C94.728 108.528 95.1244 108.355 95.5778 108.276C96.0339 108.198 96.5048 108.224 96.9906 108.355C97.5119 108.494 97.9309 108.72 98.2475 109.031C98.5648 109.34 98.7777 109.692 98.8861 110.089C98.9945 110.486 98.9954 110.883 98.8888 111.281C98.7616 111.756 98.5283 112.127 98.1888 112.395C97.8522 112.663 97.4539 112.805 96.994 112.82L96.9763 112.886C97.4852 113.116 97.8402 113.454 98.0416 113.899C98.2436 114.342 98.2729 114.83 98.1296 115.366C98.0068 115.824 97.7716 116.202 97.4241 116.5C97.0801 116.796 96.6661 116.991 96.1821 117.085C95.6982 117.179 95.1832 117.152 94.6371 117.006ZM99.4655 116.323L99.6905 115.484L104.966 110.615L105.575 110.778L105.226 112.079L104.815 111.969L100.829 115.648L100.811 115.713L105.8 117.05L105.557 117.956L99.4655 116.323ZM102.97 119.115L103.502 117.131L103.607 116.74L105.229 110.686L106.2 110.946L103.942 119.376L102.97 119.115Z" fill="#F0F0EF"/>
<path d="M109.622 181.067C109.002 180.901 108.519 180.591 108.173 180.136C107.828 179.679 107.626 179.097 107.569 178.391C107.512 177.681 107.606 176.868 107.852 175.952C108.096 175.041 108.419 174.294 108.823 173.711C109.23 173.126 109.697 172.721 110.224 172.498C110.755 172.273 111.328 172.242 111.943 172.407C112.557 172.572 113.037 172.884 113.381 173.344C113.729 173.802 113.932 174.385 113.989 175.095C114.049 175.802 113.957 176.611 113.713 177.522C113.467 178.439 113.143 179.19 112.739 179.776C112.335 180.359 111.87 180.762 111.342 180.986C110.816 181.206 110.242 181.233 109.622 181.067ZM109.865 180.162C110.479 180.326 111.036 180.158 111.535 179.656C112.034 179.155 112.431 178.355 112.725 177.258C112.921 176.528 113.009 175.885 112.99 175.33C112.974 174.776 112.856 174.325 112.638 173.978C112.422 173.632 112.11 173.405 111.704 173.296C111.095 173.133 110.539 173.306 110.035 173.815C109.531 174.321 109.133 175.122 108.839 176.217C108.644 176.946 108.555 177.587 108.571 178.139C108.588 178.69 108.705 179.138 108.922 179.481C109.142 179.825 109.456 180.052 109.865 180.162ZM119.121 174.33C119.466 174.426 119.794 174.584 120.106 174.806C120.417 175.028 120.675 175.326 120.88 175.702C121.086 176.075 121.207 176.541 121.242 177.1C121.278 177.66 121.192 178.326 120.984 179.1C120.784 179.849 120.534 180.496 120.235 181.039C119.94 181.581 119.606 182.015 119.233 182.341C118.863 182.669 118.461 182.884 118.028 182.989C117.597 183.094 117.144 183.083 116.669 182.956C116.197 182.829 115.801 182.623 115.48 182.337C115.163 182.049 114.932 181.706 114.785 181.308C114.643 180.908 114.598 180.477 114.651 180.015L115.655 180.284C115.642 180.695 115.736 181.063 115.938 181.388C116.142 181.71 116.467 181.931 116.912 182.05C117.562 182.224 118.151 182.078 118.679 181.61C119.21 181.144 119.615 180.392 119.893 179.355L119.827 179.337C119.611 179.526 119.375 179.676 119.119 179.787C118.863 179.898 118.594 179.964 118.312 179.985C118.03 180.007 117.743 179.979 117.452 179.901C116.969 179.771 116.558 179.533 116.219 179.186C115.883 178.838 115.65 178.421 115.521 177.936C115.396 177.45 115.406 176.935 115.551 176.391C115.69 175.876 115.931 175.434 116.276 175.068C116.625 174.7 117.044 174.444 117.532 174.302C118.023 174.16 118.553 174.169 119.121 174.33ZM118.879 175.236C118.533 175.143 118.198 175.146 117.875 175.245C117.555 175.342 117.275 175.514 117.035 175.761C116.799 176.007 116.633 176.305 116.539 176.656C116.445 177.007 116.436 177.348 116.513 177.677C116.593 178.004 116.744 178.289 116.968 178.531C117.194 178.771 117.481 178.938 117.827 179.03C118.087 179.1 118.344 179.115 118.596 179.073C118.849 179.029 119.083 178.941 119.298 178.807C119.517 178.672 119.705 178.503 119.862 178.301C120.019 178.096 120.132 177.869 120.199 177.619C120.287 177.29 120.29 176.96 120.208 176.629C120.129 176.299 119.975 176.008 119.745 175.755C119.519 175.503 119.23 175.33 118.879 175.236ZM126.742 176.072L121.321 185.437L120.432 185.199L125.853 175.834L126.742 176.072ZM125.512 185.202L125.711 184.461L129.31 182.16C129.732 181.891 130.084 181.653 130.366 181.446C130.648 181.237 130.872 181.029 131.036 180.823C131.203 180.615 131.322 180.382 131.391 180.124C131.47 179.827 131.467 179.552 131.383 179.297C131.301 179.042 131.154 178.824 130.941 178.64C130.729 178.457 130.47 178.324 130.165 178.243C129.842 178.156 129.541 178.147 129.263 178.217C128.989 178.285 128.754 178.42 128.559 178.624C128.366 178.828 128.226 179.091 128.14 179.412L127.169 179.151C127.301 178.658 127.531 178.254 127.859 177.942C128.187 177.63 128.575 177.422 129.023 177.319C129.474 177.216 129.945 177.231 130.437 177.362C130.93 177.495 131.34 177.716 131.666 178.027C131.991 178.338 132.215 178.699 132.337 179.111C132.459 179.523 132.462 179.946 132.346 180.38C132.263 180.69 132.125 180.978 131.933 181.244C131.745 181.508 131.465 181.785 131.093 182.074C130.725 182.36 130.23 182.698 129.608 183.087L127.172 184.605L127.155 184.671L131.073 185.721L130.831 186.627L125.512 185.202ZM135.134 187.903C134.651 187.774 134.242 187.561 133.906 187.265C133.571 186.97 133.331 186.623 133.188 186.226C133.044 185.829 133.019 185.413 133.112 184.979L134.1 185.244C134.036 185.635 134.124 185.997 134.365 186.329C134.608 186.659 134.946 186.882 135.377 186.998C135.722 187.09 136.051 187.092 136.364 187.002C136.679 186.913 136.951 186.747 137.18 186.506C137.413 186.263 137.578 185.961 137.674 185.602C137.773 185.234 137.78 184.884 137.695 184.553C137.614 184.219 137.456 183.931 137.221 183.689C136.986 183.446 136.689 183.276 136.33 183.177C136.073 183.105 135.797 183.074 135.503 183.083C135.211 183.09 134.959 183.133 134.75 183.212L133.826 182.841L135.448 178.829L139.828 180.002L139.585 180.908L136.061 179.964L135.099 182.37L135.148 182.384C135.358 182.293 135.605 182.237 135.89 182.216C136.175 182.196 136.459 182.223 136.742 182.299C137.257 182.437 137.684 182.684 138.021 183.039C138.362 183.392 138.591 183.812 138.707 184.299C138.826 184.787 138.813 185.304 138.667 185.85C138.522 186.388 138.273 186.836 137.918 187.193C137.567 187.549 137.149 187.793 136.663 187.925C136.179 188.054 135.669 188.047 135.134 187.903Z" fill="#F8F8FA"/>
<rect opacity="0.2" x="21.3066" y="140.715" width="34" height="22" rx="4" transform="rotate(15 21.3066 140.715)" fill="white"/>
</g>
<defs>
<clipPath id="clip0_2_49">
<rect x="48.6582" y="-0.000244141" width="146" height="188" rx="10" transform="rotate(15 48.6582 -0.000244141)" fill="white"/>
</clipPath>
</defs>
</svg>
