<svg width="" height="" viewBox="0 0 26 26" fill="none" xmlns="http://www.w3.org/2000/svg">
<path d="M20.5 1.75C19.5054 1.75 18.5516 2.14509 17.8483 2.84835C17.1451 3.55161 16.75 4.50544 16.75 5.5V20.5C16.75 21.4946 17.1451 22.4484 17.8483 23.1517C18.5516 23.8549 19.5054 24.25 20.5 24.25C21.4946 24.25 22.4484 23.8549 23.1517 23.1517C23.8549 22.4484 24.25 21.4946 24.25 20.5C24.25 19.5054 23.8549 18.5516 23.1517 17.8483C22.4484 17.1451 21.4946 16.75 20.5 16.75H5.5C4.50544 16.75 3.55161 17.1451 2.84835 17.8483C2.14509 18.5516 1.75 19.5054 1.75 20.5C1.75 21.4946 2.14509 22.4484 2.84835 23.1517C3.55161 23.8549 4.50544 24.25 5.5 24.25C6.49456 24.25 7.44839 23.8549 8.15165 23.1517C8.85491 22.4484 9.25 21.4946 9.25 20.5V5.5C9.25 4.50544 8.85491 3.55161 8.15165 2.84835C7.44839 2.14509 6.49456 1.75 5.5 1.75C4.50544 1.75 3.55161 2.14509 2.84835 2.84835C2.14509 3.55161 1.75 4.50544 1.75 5.5C1.75 6.49456 2.14509 7.44839 2.84835 8.15165C3.55161 8.85491 4.50544 9.25 5.5 9.25H20.5C21.4946 9.25 22.4484 8.85491 23.1517 8.15165C23.8549 7.44839 24.25 6.49456 24.25 5.5C24.25 4.50544 23.8549 3.55161 23.1517 2.84835C22.4484 2.14509 21.4946 1.75 20.5 1.75Z" stroke="#54BD95" stroke-width="2" stroke-linecap="round" stroke-linejoin="round"/>
</svg>
