<svg width="40" height="40" viewBox="0 0 40 40" fill="none" xmlns="http://www.w3.org/2000/svg">
<circle cx="20" cy="20" r="20" fill="#74C9A9"/>
<path d="M27 19.0834C27.0029 20.1832 26.7459 21.2683 26.25 22.25C25.662 23.4265 24.7581 24.416 23.6395 25.1078C22.521 25.7995 21.2319 26.1662 19.9167 26.1667C18.8168 26.1696 17.7318 25.9126 16.75 25.4167L12 27L13.5833 22.25C13.0874 21.2683 12.8305 20.1832 12.8333 19.0834C12.8338 17.7682 13.2005 16.4791 13.8923 15.3605C14.584 14.2419 15.5735 13.338 16.75 12.75C17.7318 12.2541 18.8168 11.9972 19.9167 12H20.3333C22.0703 12.0959 23.7109 12.829 24.941 14.0591C26.171 15.2892 26.9042 16.9297 27 18.6667V19.0834Z" stroke="white" stroke-width="1.66667" stroke-linecap="round" stroke-linejoin="round"/>
</svg>
